# xmcd
#
# Track frame offsets: 
#        150
#        5341
#        31924
#        40782
#        76988
#        115020
#        136777
#        171288
#        194885
#        219076
#        227021
#        268114
#        298051
#        313503
#
# Disc length: 4387 seconds
#
# Revision: 0
# Processed by: cddbd v1.5.1PL2 Copyright (c) Steve Scherf et al.
# Submitted via: ExactAudioCopy v0.95b1
#
DISCID=bb11210e
DTITLE=Little Bunny Fo Fo - Growing Like A Weed
DYEAR=2006
DGENRE=Electronic
TTITLE0=Bad Intro
TTITLE1=Test Tube Clowns
TTITLE2=Sheet Metal Cha Cha
TTITLE3=March of the Lemmings
TTITLE4=The Playground
TTITLE5=Spreadin' on the Ritz
TTITLE6=Safari
TTITLE7=Club Joker
TTITLE8=Battle in a Rootbeer Float
TTITLE9=Ratrugs
TTITLE10=Banana Banana
TTITLE11=The Bomb (It's A Head Banger)
TTITLE12=Wormhole
TTITLE13=Buglight Sonata
EXTD=
EXTT0=
EXTT1=
EXTT2=
EXTT3=
EXTT4=
EXTT5=
EXTT6=
EXTT7=
EXTT8=
EXTT9=
EXTT10=
EXTT11=
EXTT12=
EXTT13=
PLAYORDER=
